<svg id="Ebene_1" data-name="Ebene 1" xmlns="http://www.w3.org/2000/svg" viewBox="0 0 415 260"><defs><style>.cls-1{fill:#d40e14;}.cls-2{fill:#fff;}</style></defs><title>TUI_3CPM_ClaimN</title><path class="cls-1" d="M388.34,147.7a2.91,2.91,0,0,0,.83-1.06,4.64,4.64,0,0,0,.26-1.77V87a4.84,4.84,0,0,0-.26-1.8,2.52,2.52,0,0,0-.83-1q-1.32-1-6.1-1t-6.2,1a2.51,2.51,0,0,0-.83,1A4.81,4.81,0,0,0,375,87v57.9A3.47,3.47,0,0,0,376,147.7q1.32,1,6.2,1T388.34,147.7Zm-43.19.33a22.06,22.06,0,0,0,8.16-4.73,18.26,18.26,0,0,0,4.68-7.17,26.41,26.41,0,0,0,1.49-9V87a3.39,3.39,0,0,0-1-2.84q-1.42-1-6.1-1-4.87,0-6.2,1a2.24,2.24,0,0,0-.85,1A5.25,5.25,0,0,0,345,87v40a15.29,15.29,0,0,1-.83,4.85,7.61,7.61,0,0,1-3.62,4.12,14.54,14.54,0,0,1-7.38,1.63,17.07,17.07,0,0,1-5.42-.76,9.42,9.42,0,0,1-3.67-2.15,8.4,8.4,0,0,1-2.08-3.36,13.46,13.46,0,0,1-.66-4.33V87a3.39,3.39,0,0,0-1-2.84q-1.42-1-6.1-1-4.87,0-6.2,1a2.24,2.24,0,0,0-.85,1A5.25,5.25,0,0,0,307,87v40.16a26.43,26.43,0,0,0,1.49,9,18.26,18.26,0,0,0,4.68,7.17A22.06,22.06,0,0,0,321.3,148,42.58,42.58,0,0,0,345.14,148Zm-70.76-.33a2.68,2.68,0,0,0,.8-1.06,5,5,0,0,0,.24-1.77V95.48h14.43a9,9,0,0,0,2.6-.31A2.65,2.65,0,0,0,294,93.82a11.88,11.88,0,0,0,1-3.55,24.77,24.77,0,0,0,.35-3.64,6,6,0,0,0-.19-1.73,1.82,1.82,0,0,0-.76-1,3,3,0,0,0-1-.35,11.5,11.5,0,0,0-1.89-.12H246.56a9,9,0,0,0-2.6.31,2.66,2.66,0,0,0-1.56,1.35,10.21,10.21,0,0,0-1,3.12,22.36,22.36,0,0,0-.35,4,6.19,6.19,0,0,0,.19,1.77,1.76,1.76,0,0,0,.8,1,6,6,0,0,0,2.89.47H261v49.39a3.31,3.31,0,0,0,1.09,2.84q1.32,1,6.2,1Q273,148.74,274.38,147.7Z"/><path class="cls-1" d="M11,48H61.59c5,0,8.69,1.57,10.16,8.61,1.64,7.83,1,13.28-7.85,13.9L48,71.65C59.71,145.46,128,169.53,165.21,90c6.16-13.16,8.17-15.55,14.91-13.88,9.14,2.27,10.39,7,6,20.23C154,194.38,45.93,204.21,24.73,73.32l-12.89.93C1.34,75,.92,66.15.92,61.23,0.92,51.49,4.54,48,11,48Z"/><circle class="cls-1" cx="194.85" cy="19.37" r="18.76"/><path class="cls-2" d="M93.31,217.55c-0.11,1.46,1.4,2.1,2.52,2.19a1.42,1.42,0,0,0,1.58-1.44,2.23,2.23,0,0,0-2-2.49,1.89,1.89,0,0,0-2.13,1.74h0Z"/><path class="cls-2" d="M363,191.69c-1.21-.09-2.84.91-3,3.24a1.73,1.73,0,0,0,1.41,1.93c1.55,0.12,2.88-1.43,3-3.15a1.66,1.66,0,0,0-1.4-2h0Z"/><path class="cls-2" d="M92.65,227.3c-0.78-.06-1.33.42-1.78,1.68a65.14,65.14,0,0,0-2.48,8.56,1.59,1.59,0,0,0,1.4,2.1A1.79,1.79,0,0,0,91.31,238c0.64-2.73,1.52-6.21,2-8.86q0.27-1.8-.64-1.87h0Z"/><path class="cls-2" d="M120.38,226c1.21,0.09,1.78-1.77,1.85-2.63,0.11-1.38-.53-3.31-2.17-3.37-5.18-.09-9.68,6.76-9.89,10.37s2.64,6.17,6.68,6.48c1.72,0.13,2.87-.27,2.94-1.14a1,1,0,0,0-1-1.2c-3.17-.42-5.27-0.95-5.49-3.57-0.5-2.41,2.38-7.58,6.1-8.3,0.73-.08-0.09,1.21-0.17,2.16a1.11,1.11,0,0,0,1.12,1.21h0Z"/><path class="cls-2" d="M95.95,236.25c-0.15,1.9,1.8,2.48,3.35,2.6a5.29,5.29,0,0,0,5.91-4.74c0.24-3.1-2.57-7.22-2.33-10.32a1.09,1.09,0,0,1,1.21-1c0.95,0.07,1.14,1,2,1a1.49,1.49,0,0,0,1.42-1.54c0.08-1-.78-2.31-2.67-2.46a4.61,4.61,0,0,0-5.07,3.94c-0.24,3.1,2.82,7.32,2.56,10.68a1.93,1.93,0,0,1-2,1.84c-1.29-.1-1.71-1.43-2.74-1.51a1.55,1.55,0,0,0-1.59,1.52h0Z"/><path class="cls-2" d="M203.57,213.5c-1.72-.13-8.46,2.9-13.64,2.68-1.12-.09-1.4-1-2.52-1.06-0.6,0-1.32.24-1.59,1.52-0.73,3.93-3.35,12.77-4.23,16.34-0.25,1,0,1.19,1.08,1.27s1.56-1.25,1.81-2.19c0.93-3,2.56-8.57,3.63-11.26,0.65-1.68,1.11-2,1.9-2.19,2.92-.82,9.7-1,13.07-2,1.24-.34,1.89-0.9,1.94-1.58a1.3,1.3,0,0,0-1.45-1.5h0Z"/><path class="cls-2" d="M305.68,218.75c-0.17,2.24,2.08,3.37,4.84,3.58,4.05,0.31,9.49-1.7,9.8-5.74,0.36-4.65-7-7.26-6.74-10.45,0.11-1.47,1.92-2.37,4.16-2.19,1.89,0.15,1.78,1.7,2.9,1.78a1.19,1.19,0,0,0,1.22-1.21c0.12-1.55-1.68-3-3.83-3.15-4.22-.33-6.91,2-7.13,4.74-0.35,4.57,6.74,7.07,6.48,10.43-0.17,2.15-3.55,3.37-5.79,3.19-1.29-.1-2.49-0.36-2.43-1.14,0-.34.41-0.84,0.45-1.35a1.09,1.09,0,0,0-1-1.21,2.86,2.86,0,0,0-2.9,2.72h0Z"/><path class="cls-2" d="M124,230.48c-0.21,2.76,1.8,6,4.47,6.17,4.39,0.34,8.13-4.33,9.56-8.21a16.11,16.11,0,0,0,1-4.61,1.38,1.38,0,0,1,.9-1.49,22.88,22.88,0,0,1,5.13-1.42c0.52,0,1-.1,1,1,0.14,1.57-.15,9.92-0.3,11.81-0.13,1.64.17,2.27,1.29,2.35,2.42,0.56,9-5,14.39-14.72,1.24-2.09,1.31-2.72,1.35-3.48a0.93,0.93,0,0,0-.87-1.11c-1.21-.09-1.18,1.68-3.07,4.22a53.62,53.62,0,0,1-9.41,11.12c-0.47.27-.77-0.15-0.72-0.75a99.82,99.82,0,0,1,.78-10.13c0.29-1.54.65-1.68,0.76-3.15,0-.43-0.13-1.66-1.09-1.64-1.12-.09-1.7.73-2.88,1.34s-5.8,2.15-7.87,2c-0.69-.05-1.33-0.8-2.19-0.86s-1.76.3-1.82,1.07c-0.19,2.5,2.48,2.62,2.29,5.12-0.26,3.36-3.29,9-7.17,8.74-1.81-.14-2.6-2.3-2.48-3.85,0.14-1.81.76-4.28,2.33-5.45,1-.79,3.3-0.09,3.46-2.16a1.7,1.7,0,0,0-1.68-1.86c-3-.23-6.82,5.28-7.18,9.94h0Z"/><path class="cls-2" d="M350,218a4.86,4.86,0,0,0,3.69-2.26c1.47-2.14,3.19-5.29,4.36-7,1-1.13,1.51-.86,1.57.54,0,2.77,0,7.63,2,7.79a1.74,1.74,0,0,0,1.94-1.5c0.09-1.21-.85-2-1.12-8.47,0-1.05.6-4.37-1.56-4.54-1-.08-1.77.47-2.56,1.71-2.15,3.21-3.71,6.76-5.59,8.69-1.13,1.13-1.47.18-1.46-1s0.89-5.44,1.1-8.16-1.37-3.57-2.32-3.65-1.76.38-2.8,1.52c-2.08,2.27-5.17,7-7.35,9.38-0.49.47-.95,1.15-1.21,0.09-0.34-1.24-.6-7-0.82-8.63-0.24-1.32-.72-1.87-1.5-1.93a3.47,3.47,0,0,0-2.6,1.25c-1.86,2.72-4.42,9.94-5.43,11.85-0.41.84-.58,0.73-0.52,0,0.14-1.81,1.6-9.08,1.72-10.54,0.08-1-.32-1.5-0.92-1.55-2-.15-3,8.54-3.46,14.48-0.29,3.79,0,5.29.6,5.33a2.21,2.21,0,0,0,2.11-1.49c2.37-4.85,5.49-12.55,6.68-14.68,0.38-.49.72-0.29,0.86,0.15,0.48,1.68.66,5.82,1.09,9.15,0.16,1.31.88,2,1.49,2,0.8,0,1.32-.69,2.06-1.66,2.48-3.22,4.91-6.45,7.2-9.2,0.74-.64,1.5-0.68,1.41.35-0.18,2.33-.62,6.15-0.57,8.92,0,1.82.65,2.92,1.94,3h0Z"/><path class="cls-2" d="M59.7,240.7c2.25-5.64,5.77-14.2,8.6-20.57,0.52-1.17.8-1.41,2.84-.82,5.51,1.55,11.78,4.63,11.41,9.37C82.18,233.59,72,239,61.24,242c-2.39.68-2.29,0.51-1.54-1.33h0Zm-5.52,9.8c2.07,0.16,2.29-1.56,2.93-3.15a2.59,2.59,0,0,1,2.22-1.82c18-5.11,26.28-11.5,26.71-17.1,0.66-8.62-15.25-13.57-27.92-14.54a128.09,128.09,0,0,0-46,4.78c-2,.62-2.87,1.25-2.95,2.28a1.25,1.25,0,0,0,1.28,1.4c1,0.08,2.9-.56,5.22-1.33,7.74-2.61,26.37-5.86,41.88-4.66a35,35,0,0,1,6.42,1.1c1.52,0.55,1.5.81,1,2.25a153.53,153.53,0,0,1-9,21.49c-1.53,3-1.72,3.16-4,3.77-6.81,1.82-17.86,3.48-21.83,3.17-0.6,0-2.23-.26-2.12-1.72s1.45-2,2.68-2.22a1.63,1.63,0,0,0,1.49-1.36,1.31,1.31,0,0,0-1.45-1.41,5.77,5.77,0,0,0-5.85,5c-0.19,2.41,1,4.41,4.41,4.67,4.74,0.36,16.42-1.6,23.31-3.32,1.06-.27,1-0.09.41,1.42-0.32.75,0.34,1.24,1.2,1.3h0Z"/><path class="cls-2" d="M383.18,184.78c-3.53-.27-8.24,5.77-10.91,14.67-0.25.93-.36,1.27-2.05,1.92a12,12,0,0,1-3.43.6,1.4,1.4,0,0,0-1.4,1.28,1.53,1.53,0,0,0,1.35,1.66,8.8,8.8,0,0,0,3.54-.94c1.34-.5,1.85-0.21,1.94.93,0.38,4.1,2.36,8.76,7.36,9.15,4.39,0.34,7.72-2.11,10.54-5.16,0.66-.88,1.09-0.61,1.47,0,1.94,2.92,5.73,6.11,9.95,6.43a13.57,13.57,0,0,0,11-3.83,5.12,5.12,0,0,0,1.59-3,0.8,0.8,0,0,0-.71-0.92c-0.78-.06-1.16.81-2.74,2.16a10.83,10.83,0,0,1-8.17,3c-3.45-.27-7.07-3.29-8.55-5.49a1.75,1.75,0,0,1,.51-2c1.88-1.85,3.9-3.65,3.94-6.94,0.2-2.58-1.37-3.57-2.84-3.69-2.67-.21-5.68,1.73-6,6.38a14.91,14.91,0,0,0,.33,3.58,2.39,2.39,0,0,1-.85,2.16c-2,2.17-5.15,4.33-8.26,4.09-3.45-.27-5.21-3.89-5.42-6.76-0.12-1.83-.11-1.91,2.11-3.74,3.89-3.25,6.74-6.64,7.52-11.57,0.09-1.38-.19-3.81-1.74-3.93h0Zm-1.61,2.93c0.7,0,.93.87,0.41,2.81a8.47,8.47,0,0,1-1.61,3.56c-1.67,2.37-4.13,4.56-4.75,4.51-0.17,0-.25-0.1-0.23-0.36,0.23-2.93,4.63-10.63,6.18-10.51h0Zm10.95,15.47c-0.35,0-.45-0.9-0.37-1.93,0.16-2.07,1.69-3.94,2.81-3.86a1,1,0,0,1,.77,1.27c-0.15,1.9-2.52,4.57-3.21,4.52h0Z"/><path class="cls-2" d="M161,226.56a1.23,1.23,0,0,0,1.36,1.41,9,9,0,0,0,3.35-.69c0.89-.28,1-0.09,1.42.72,1.33,3,3.72,5.74,7.25,6,1.55,0.12,4.54-.43,4.71-2.58A1.31,1.31,0,0,0,178,230c-1.21-.09-2,1.49-3.31,1.39a5,5,0,0,1-4.47-4.94,1.8,1.8,0,0,1,1-1.4c4-1.86,6.59-4.52,6.85-7.88a2.65,2.65,0,0,0-2.54-3.06c-5.34-.41-7.78,5.38-8.74,8.77a2.79,2.79,0,0,1-1.76,1.51c-1.26.6-3.84,0.4-4,2.12h0Zm8.84-4.43c0.22-2.84,3.17-5.22,4.64-5.1a0.63,0.63,0,0,1,.64.74c-0.17,2.24-3.67,4.92-4.88,4.82a0.37,0.37,0,0,1-.4-0.46h0Z"/><path class="cls-2" d="M297.58,208.57a1.29,1.29,0,0,0-1.48-1.39c-1.21,0-6.26,2-9.11,1.8-1.47-.09-1.67-1.05-3-1.13s-2.39.9-2.51,2.88c-0.26,4.31-2.65,12.48-2.69,13a1.53,1.53,0,0,0,1.45,1.82c1.9,0,3.27-6.73,4.13-12.48,0.16-1.29.52-1.53,1.65-1.55,3.82-.12,11.34,0,11.52-3h0Z"/><path class="cls-2" d="M210.35,257.4a2,2,0,0,0,2.1,2c4.39,0.34,12.18-16.4,19.79-36.44,0.76-1.94,3.28-4.63,3.45-6.79a1.68,1.68,0,0,0-1.52-1.68c-1.56,0-2.35,2.7-3,4-2.08,4.26-6.73,7.75-10.43,7.46a2.17,2.17,0,0,1-1.8-2.56,14,14,0,0,1,2.74-6.67c0.77-1,2.47-1.72,2.59-3.27a1.47,1.47,0,0,0-1.44-1.58c-2.68-.12-6.24,7.09-6.64,12.35,0,2.43,1.12,4.59,3.7,4.79,2.16,0.17,5.06-1.52,7.15-2.83a1.77,1.77,0,0,1,.81-0.37c0.17,0,.24.19,0.22,0.45a6.84,6.84,0,0,1-.36,1.36,109.73,109.73,0,0,1-13,25.7c-1.47,2.23-4.23,2-4.39,4.08h0Z"/><path class="cls-2" d="M235.88,222.07c-0.16,3.26,2.61,5.16,5.78,5.4,4.84,0.37,8-3.28,8.27-7.42,0.24-3.08-1.17-5.93-1.05-7.43,0.13-1.67,6.07-1.83,10.22-1.78,0.79,0.06,1.12.35,1.08,1-0.1,1.32-2.7,5.55-2.93,8.63-0.18,2.29,1,3.79,3.5,4,4,0.3,7-4.29,9.63-6.21a12.27,12.27,0,0,1,1.09-.72c2-1.32.75,5.81,3.55,6a2.13,2.13,0,0,0,2.44-1.85c0.08-2.21-2-.68-1.77-3.41,0.09-1.14.75-2.26,0.86-3.67,0.05-.7.13-3-1.1-3.12-2-.15-4.51,3.44-6.68,5.13-3.21,2.59-5.25,4.26-7.46,4.17-0.88-.07-1.28-0.63-1.19-1.77,0.2-2.55,3.57-5.49,3.73-7.69a2.8,2.8,0,0,0-2.86-3.05c-6.78.86-14.8,0.28-15.06,3.71-0.13,1.67,1.83,5.37,1.66,7.56a5.38,5.38,0,0,1-5.62,5.23c-1.49-.12-3.56-0.81-3.42-2.74,0.09-1.23.7-2.16,1.58-2.09s1.39,0.37,2.27.44a1.65,1.65,0,0,0,1.64-1.73c0.1-1.32-1.55-1.71-2.34-1.77a5.41,5.41,0,0,0-5.8,5.21h0Z"/></svg>